<?xml version="1.0" encoding="UTF-8" standalone="no"?><!DOCTYPE svg PUBLIC "-//W3C//DTD SVG 1.1//EN" "http://www.w3.org/Graphics/SVG/1.1/DTD/svg11.dtd"><svg width="100%" height="100%" viewBox="0 0 2245 2245" version="1.1" xmlns="http://www.w3.org/2000/svg" xmlns:xlink="http://www.w3.org/1999/xlink" xml:space="preserve" xmlns:serif="http://www.serif.com/" style="fill-rule:evenodd;clip-rule:evenodd;stroke-linecap:round;stroke-linejoin:round;stroke-miterlimit:1.5;"><g transform="matrix(1,0,0,1,41.6667,-6.10794)"><circle cx="1080.38" cy="1128.15" r="1080.38" style="fill:#fff;stroke:#fff;stroke-width:83.33px;"/></g><g><g id="LWPOLYLINE" transform="matrix(-1,1.22465e-16,-1.22465e-16,-1,1122.04,1478.5)"><path d="M99.591,-708.661l-199.182,-0l44.473,362.204l-382.511,-33.465l73.21,156.998l-611.428,428.127l155.087,27.346l-141.217,347.438l374.784,-13.871l-27.346,155.088l322.5,-225.817l-109.384,620.351l204.573,-118.11l196.85,423.955l196.85,-423.955l204.573,118.11l-109.384,-620.351l322.5,225.817l-27.346,-155.088l374.784,13.871l-141.217,-347.438l155.087,-27.346l-611.428,-428.127l73.21,-156.998l-382.511,33.465l44.473,-362.204Z" style="fill:#174c6b;"/></g><g id="Hexes" transform="matrix(1,0,0,1,1122.04,848.581)"><g><g id="LINE" transform="matrix(-1,1.22465e-16,-1.22465e-16,-1,0,629.921)"><path d="M-236.22,-0l-236.221,0" style="fill:none;stroke:#000;stroke-width:38.89px;stroke-miterlimit:2;"/></g><g id="LINE1" serif:id="LINE" transform="matrix(-1,1.22465e-16,-1.22465e-16,-1,0,629.921)"><path d="M-472.441,0l-118.11,204.573" style="fill:none;stroke:#000;stroke-width:38.89px;stroke-miterlimit:2;"/></g><g id="LINE2" serif:id="LINE" transform="matrix(-1,1.22465e-16,-1.22465e-16,-1,0,629.921)"><path d="M-590.551,204.573l118.11,204.573" style="fill:none;stroke:#000;stroke-width:38.89px;stroke-miterlimit:2;"/></g><g id="LINE3" serif:id="LINE" transform="matrix(-1,1.22465e-16,-1.22465e-16,-1,0,629.921)"><path d="M-472.441,409.146l236.221,-0" style="fill:none;stroke:#000;stroke-width:38.89px;stroke-miterlimit:2;"/></g><g id="LINE4" serif:id="LINE" transform="matrix(-1,1.22465e-16,-1.22465e-16,-1,0,629.921)"><path d="M-236.22,409.146l118.11,-204.573" style="fill:none;stroke:#000;stroke-width:38.89px;stroke-miterlimit:2;"/></g><g id="LINE5" serif:id="LINE" transform="matrix(-1,1.22465e-16,-1.22465e-16,-1,0,629.921)"><path d="M118.11,204.573l118.11,-204.573" style="fill:none;stroke:#000;stroke-width:38.89px;stroke-miterlimit:2;"/></g><g id="LINE6" serif:id="LINE" transform="matrix(-1,1.22465e-16,-1.22465e-16,-1,0,629.921)"><path d="M236.22,0l-118.11,-204.573" style="fill:none;stroke:#000;stroke-width:38.89px;stroke-miterlimit:2;"/></g><g id="LINE7" serif:id="LINE" transform="matrix(-1,1.22465e-16,-1.22465e-16,-1,0,629.921)"><path d="M-118.11,-204.573l-118.11,204.573" style="fill:none;stroke:#000;stroke-width:38.89px;stroke-miterlimit:2;"/></g><g id="LINE8" serif:id="LINE" transform="matrix(-1,1.22465e-16,-1.22465e-16,-1,0,629.921)"><path d="M-236.22,-0l118.11,204.573" style="fill:none;stroke:#000;stroke-width:38.89px;stroke-miterlimit:2;"/></g><g id="LINE9" serif:id="LINE" transform="matrix(-1,1.22465e-16,-1.22465e-16,-1,0,629.921)"><path d="M-118.11,204.573l236.22,-0" style="fill:none;stroke:#000;stroke-width:38.89px;stroke-miterlimit:2;"/></g><g id="LINE10" serif:id="LINE" transform="matrix(-1,1.22465e-16,-1.22465e-16,-1,0,629.921)"><path d="M118.11,204.573l118.11,204.573" style="fill:none;stroke:#000;stroke-width:38.89px;stroke-miterlimit:2;"/></g><g id="LINE11" serif:id="LINE" transform="matrix(-1,1.22465e-16,-1.22465e-16,-1,0,629.921)"><path d="M236.22,409.146l236.221,-0" style="fill:none;stroke:#000;stroke-width:38.89px;stroke-miterlimit:2;"/></g><g id="LINE12" serif:id="LINE" transform="matrix(-1,1.22465e-16,-1.22465e-16,-1,0,629.921)"><path d="M472.441,409.146l118.11,-204.573" style="fill:none;stroke:#000;stroke-width:38.89px;stroke-miterlimit:2;"/></g><g id="LINE13" serif:id="LINE" transform="matrix(-1,1.22465e-16,-1.22465e-16,-1,0,629.921)"><path d="M590.551,204.573l-118.11,-204.573" style="fill:none;stroke:#000;stroke-width:38.89px;stroke-miterlimit:2;"/></g><g id="LINE14" serif:id="LINE" transform="matrix(-1,1.22465e-16,-1.22465e-16,-1,0,629.921)"><path d="M472.441,-0l-236.221,0" style="fill:none;stroke:#000;stroke-width:38.89px;stroke-miterlimit:2;"/></g><g id="LINE15" serif:id="LINE" transform="matrix(-1,1.22465e-16,-1.22465e-16,-1,0,629.921)"><path d="M-236.22,409.146l118.11,204.573" style="fill:none;stroke:#000;stroke-width:38.89px;stroke-miterlimit:2;"/></g><g id="LINE16" serif:id="LINE" transform="matrix(-1,1.22465e-16,-1.22465e-16,-1,0,629.921)"><path d="M118.11,613.719l118.11,-204.573" style="fill:none;stroke:#000;stroke-width:38.89px;stroke-miterlimit:2;"/></g><g id="LINE17" serif:id="LINE" transform="matrix(-1,1.22465e-16,-1.22465e-16,-1,0,629.921)"><path d="M-118.11,613.719l118.11,194.573" style="fill:none;stroke:#000;stroke-width:38.89px;stroke-miterlimit:2;"/></g><g id="LINE18" serif:id="LINE" transform="matrix(-1,1.22465e-16,-1.22465e-16,-1,0,629.921)"><path d="M-0,808.292l118.11,-194.573" style="fill:none;stroke:#000;stroke-width:38.89px;stroke-miterlimit:2;"/></g><g id="LINE19" serif:id="LINE" transform="matrix(-1,1.22465e-16,-1.22465e-16,-1,0,629.921)"><path d="M-118.11,-204.573l118.11,-204.573" style="fill:none;stroke:#000;stroke-width:38.89px;stroke-miterlimit:2;"/></g><g id="LINE20" serif:id="LINE" transform="matrix(-1,1.22465e-16,-1.22465e-16,-1,0,629.921)"><path d="M118.11,-204.573l-118.11,-204.573" style="fill:none;stroke:#000;stroke-width:38.89px;stroke-miterlimit:2;"/></g></g></g><g id="Dot-Stroke" serif:id="Dot Stroke" transform="matrix(1,0,0,1,1122.04,848.581)"><g><g transform="matrix(1.38667,0,0,1.38667,-1102.98,-983.853)"><circle cx="372.379" cy="1016.25" r="39.749" style="fill:none;stroke:#fff;stroke-width:60.1px;"/></g><g transform="matrix(1.38667,0,0,1.38667,-516.365,-406.252)"><circle cx="372.379" cy="1016.25" r="39.749" style="fill:none;stroke:#fff;stroke-width:60.1px;"/></g><g transform="matrix(1.38667,0,0,1.38667,-284.081,-1188.43)"><circle cx="372.379" cy="1016.25" r="39.749" style="fill:none;stroke:#fff;stroke-width:60.1px;"/></g><g transform="matrix(1.38667,0,0,1.38667,-752.585,-779.28)"><circle cx="372.379" cy="1016.25" r="39.749" style="fill:none;stroke:#fff;stroke-width:60.1px;"/></g><g transform="matrix(1.38667,0,0,1.38667,74.1865,-983.853)"><circle cx="372.379" cy="1016.25" r="39.749" style="fill:none;stroke:#fff;stroke-width:60.1px;"/></g><g transform="matrix(1.38667,0,0,1.38667,-752.585,-1188.43)"><circle cx="372.379" cy="1016.25" r="39.749" style="fill:none;stroke:#fff;stroke-width:60.1px;"/></g><g transform="matrix(1.38667,0,0,1.38667,-284.081,-779.28)"><circle cx="372.379" cy="1016.25" r="39.749" style="fill:none;stroke:#fff;stroke-width:60.1px;"/></g><g transform="matrix(1.38667,0,0,1.38667,-516.365,-1587.57)"><circle cx="372.379" cy="1016.25" r="39.749" style="fill:none;stroke:#fff;stroke-width:60.1px;"/></g></g></g><g id="Dot-Core" serif:id="Dot Core" transform="matrix(1,0,0,1,1122.04,848.581)"><g transform="matrix(1.38667,0,0,1.38667,-1102.98,-983.853)"><circle cx="372.379" cy="1016.25" r="39.749" style="fill:#f2af0d;"/></g><g transform="matrix(1.38667,0,0,1.38667,-516.365,-406.252)"><circle cx="372.379" cy="1016.25" r="39.749" style="fill:#f2af0d;"/></g><g transform="matrix(1.38667,0,0,1.38667,-284.081,-1188.43)"><circle cx="372.379" cy="1016.25" r="39.749" style="fill:#f2af0d;"/></g><g transform="matrix(1.38667,0,0,1.38667,-752.585,-779.28)"><circle cx="372.379" cy="1016.25" r="39.749" style="fill:#f2af0d;"/></g><g transform="matrix(1.38667,0,0,1.38667,74.1865,-983.853)"><circle cx="372.379" cy="1016.25" r="39.749" style="fill:#f2af0d;"/></g><g transform="matrix(1.38667,0,0,1.38667,-752.585,-1188.43)"><circle cx="372.379" cy="1016.25" r="39.749" style="fill:#f2af0d;"/></g><g transform="matrix(1.38667,0,0,1.38667,-284.081,-779.28)"><circle cx="372.379" cy="1016.25" r="39.749" style="fill:#f2af0d;"/></g><g transform="matrix(1.38667,0,0,1.38667,-516.365,-1587.57)"><circle cx="372.379" cy="1016.25" r="39.749" style="fill:#f2af0d;"/></g></g></g></svg>